<?xml version="1.0" encoding="UTF-8"?>
<svg width="100%" height="100%" viewBox="0 -175 600 600" style="overflow:visible;enable-background:new 0 0 600 600" xml:space="preserve">
<!--Draw Main Box-->
<g id="Border" stroke-width="2" stroke="#000000" fill="#FFFFFF">
<rect x="-25" y="-100" width="570" height="520"/>
</g>
<!--label axis-->
<g id="ylabel" font-family="Times New Roman" font-style="Bold" font-size="14">
<text x="-250" y="0" transform="rotate(-90)">Number of Devices</text>
</g>

<g id="xlabel" font-family="Times New Roman" font-style="Bold" font-size="14">
<text x="180" y="407">Time Period at 30min Intervals</text>
</g>

<!--Draw Axis-->
<g id="Lines" stroke-width="1" stroke="#000000">
<line x1="25" y1="380" x2="525" y2="380"/>
<line x1="25" y1="380" x2="25" y2="-80"/>
</g>
<!--Heading-->
<g id="Heading" font-family="Times New Roman" font-style="Bold" font-size="24">
<text x="185" y="-135">Migration Analysis</text>
</g>
 <!--SubHeading-->
<g id="Heading2" font-family="Arial" font-size="16">
<text x="100" y="-115">Total Migrated From 1/1/2004 to 7/7/2004 -</text>
</g>
<!--Sub Heading2-->
<g id="Heading2" fill="red" font-family="Arial" font-size="16">
<text x="420" y="-115"> 1016</text>
</g>

<!--Y Axis Labels-->
 <g id="YLabels" font-family="Times New Roman" font-size="12">
  <text x="10" y="380">0</text>
  <text x="10" y="360">10</text>
  <text x="10" y="340">20</text>
  <text x="10" y="320">30</text>
  <text x="10" y="300">40</text>
  <text x="10" y="280">50</text>
  <text x="10" y="260">60</text>
  <text x="10" y="240">70</text>
  <text x="10" y="220">80</text>
  <text x="10" y="200">90</text>
  <text x="5" y="180">100</text>
  <text x="5" y="160">110</text>
  <text x="5" y="140">120</text>
  <text x="5" y="120">130</text>
  <text x="5" y="100">140</text>
  <text x="5" y="80">150</text>
  <text x="5" y="60">160</text>
  <text x="5" y="40">170</text>
  <text x="5" y="20">180</text>
  <text x="5" y="0">190</text>
  <text x="5" y="-20">200</text>
  <text x="5" y="-40">210</text>
  <text x="5" y="-60">220</text>
  <text x="5" y="-80">230</text>
  

 </g>
 
 <!--Y Axis lines-->
 <g id="YLines">
 <line x1="25" y1="360" x2="525" y2="360"/>
 <line x1="25" y1="340" x2="525" y2="340"/>
  <line x1="25" y1="320" x2="525" y2="320"/>
  <line x1="25" y1="300" x2="525" y2="300"/>
  <line x1="25" y1="280" x2="525" y2="280"/>
  <line x1="25" y1="260" x2="525" y2="260"/>
  <line x1="25" y1="240" x2="525" y2="240"/>
  <line x1="25" y1="220" x2="525" y2="220"/>
  <line x1="25" y1="200" x2="525" y2="200"/>
  <line x1="25" y1="180" x2="525" y2="180"/>
  <line x1="25" y1="160" x2="525" y2="160"/>
  <line x1="25" y1="140" x2="525" y2="140"/>
  <line x1="25" y1="120" x2="525" y2="120"/>
  <line x1="25" y1="100" x2="525" y2="100"/>
  <line x1="25" y1="80" x2="525" y2="80"/>
  <line x1="25" y1="60" x2="525" y2="60"/>
  <line x1="25" y1="40" x2="525" y2="40"/>
  <line x1="25" y1="20" x2="525" y2="20"/>
  <line x1="25" y1="0" x2="525" y2="0"/>
  <line x1="25" y1="-20" x2="525" y2="-20"/>
  <line x1="25" y1="-40" x2="525" y2="-40"/>
  <line x1="25" y1="-60" x2="525" y2="-60"/>
  <line x1="25" y1="-80" x2="525" y2="-80"/>
  
  
 </g>
 
 <!--x Axis Labels-->
 <g id="XLabels" font-family="Times New Roman" font-size="9">
  <text x="50" y="390">1/2 hr</text>
  <text x="80" y="390">1 hr</text>
  <text x="110" y="390">1.5 hr</text>
  <text x="140" y="390">2 hr</text>
  <text x="170" y="390">2.5 hr</text>
  <text x="200" y="390">3 hr</text>
  <text x="230" y="390">3.5 hr</text>
  <text x="260" y="390">4 hr</text>
  <text x="290" y="390">4.5 hr</text>
  <text x="320" y="390">5 hr</text>
  <text x="350" y="390">5.5 hr</text>
  <text x="380" y="390">6 hr</text>
  <text x="410" y="390">6.5 hr</text>
  <text x="440" y="390">7 hr</text>
  <text x="470" y="390">7.5 hr</text>
  <text x="500" y="390">8 hr</text>
 </g>
 
 <!-- Draw Bars -->
 <g fill="RED" transform="matrix(1 0 0 -1 0 760)">
  <rect x="50" y="380" width="15" height="78"/>
  <rect x="80" y="380" width="15" height="254"/>
  <rect x="110" y="380" width="15" height="450"/>
  <rect x="140" y="380" width="15" height="546"/>
  <rect x="170" y="380" width="15" height="322"/>
  <rect x="200" y="380" width="15" height="172"/>
  <rect x="230" y="380" width="15" height="98"/>
  <rect x="260" y="380" width="15" height="50"/>
  <rect x="290" y="380" width="15" height="36"/>
  <rect x="320" y="380" width="15" height="10"/>
  <rect x="350" y="380" width="15" height="8"/>
  <rect x="380" y="380" width="15" height="6"/>
  <rect x="410" y="380" width="15" height="0"/>
  <rect x="440" y="380" width="15" height="0"/>
  <rect x="470" y="380" width="15" height="2"/>
  <rect x="500" y="380" width="15" height="0"/>
 </g>
 <!-- Label Bars -->
 
 
 
 
 
 
 
 
 
 
 
 
 
 
 
 

 
 
 <g fill="Black" font-family="Arial" font-size="10">
  <text x="52" y="297">39</text>
  <text x="82" y="121">127</text>
  <text x="112" y="-75">225</text>
  <text x="142" y="-171">273</text>
  <text x="172" y="53">161</text>
  <text x="202" y="203">86</text>
  <text x="232" y="277">49</text>
  <text x="262" y="325">25</text>
  <text x="292" y="339">18</text>
  <text x="322" y="365">5</text>
  <text x="352" y="367">4</text>
  <text x="382" y="369">3</text>
  <text x="412" y="375">0</text>
  <text x="442" y="375">0</text>
  <text x="472" y="373">1</text>
  <text x="502" y="375">0</text>
 </g>
</svg>
