<?xml version="1.0" encoding="UTF-8"?>
<svg width="100%" height="100%" viewBox="25 -25 500 500" style="overflow:visible;enable-background:new 25 -25 500 500">
	<style type="text/css">
	<![CDATA[
		.st0{font-family:'Verdana';}
		.st1{letter-spacing:-0.019;}
		.st2{fill:#146798;}
		.st3{fill:#146A29;}
		.st4{opacity:0.10;}
		.st5{fill:none;stroke:#6D6D6D;stroke-width:0.5;}
		.st6{fill:none;stroke:#6D6D6D;stroke-width:0.5;}
		.st7{fill:none;stroke:#6D6D6D;stroke-width:0.5;}
		.st8{fill:none;stroke:#6D6D6D;stroke-width:0.5;}
		.st9{fill:#EFEEEE;}
		.st10{fill:none;stroke:#000000;stroke-width:0.5;}
		.st11{fill:#631E1D;}
		.st12{fill:white;stroke:#000000;stroke-width:0.5;}
		.st13{font-family:'Arial-BoldMT';}
		.st14{fill:#FFFF99;}
		.st15{letter-spacing:0.187;}
		.st16{fill:#FFFF99;stroke:black;stroke-width:0.5;}
		.st17{fill:none;stroke:#6D6D6D;stroke-width:0.5;}
		.st18{fill:none;stroke:#6D6D6D;stroke-width:0.5;}
		.st19{fill:#FFFFFF;}
		.st20{fill:#631E1D;}
		.st21{fill:#640D81;stroke:#080808;stroke-width:0.5;}
		.st22{fill:#631E1D;}
		.st23{fill:#FFFFFF;stroke:#000000;stroke-width:0.5;}
		.st24{letter-spacing:0.5;}
		.st25{letter-spacing:13;}
		.st26{font-family:'ArialMT';}
		.st27{letter-spacing:-0.5;}
		.st28{font-size:7;}
		.st29{font-size:10;}
		.st30{font-size:20;}
		.st31{fill:#080808;}
		.st32{fill:#136925;stroke:#080808;stroke-width:0.5;}
		.st33{fill:#007ADF;stroke:#080808;}
		.st34{fill:none;stroke:#6D6D6D;stroke-width:0.5;}
		.st35{fill:none;stroke:#6D6D6D;stroke-width:0.5;}
		.st36{fill:#DDDDDD;stroke:#000000;stroke-width:0.5;}
		.st37{fill:#C67D7D;}
		.st38{fill:#CCCCFF;}
		.st39{fill:#C67D7D;stroke:black;stroke-width:0.5;}
		.st40{fill:#CCCCFF;stroke:black;stroke-width:0.5;}
		.st41{text-anchor:end;}	
		.st42{text-anchor:middle;}	
		.st43{font-size:12;}
		.st44{fill:white;}
		.st45{font-size:6.5;letter-spacing:-0.5;text-anchor:middle;}
		.st46{font-size:10;fill:#631E1D;text-anchor:middle;}
		.st47{font-size:10;}
		.st48{font-size:10;}
		.st49{font-size:8;}
	]]>
	</style>

<!-- Graph Section -->

	<g id="Graph">
		<rect x="0" y="0" width="570" height="450" class="st10"/>
		<rect x="10" y="5" width="551" height="40" class="st23"/>
		<rect x="10" y="50" width="551" height="310" class="st12"/>
		<rect x="10" y="365" width="551" height="80" class="st12"/>
		
			
		<g id="horizontal lines">
   		<line x1="10" y1="70" x2="560" y2="70" style="stroke: black; stroke-width:1;"/>
		<line x1="10" y1="85" x2="560" y2="85" style="stroke: black; stroke-width:1;"/>
		<!--Functions-->
		<line x1="10" y1="105" x2="560" y2="105"/>
		<line x1="10" y1="125" x2="560" y2="125"/>
		<line x1="10" y1="145" x2="560" y2="145"/>
		<line x1="10" y1="165" x2="560" y2="165"/>
		<line x1="10" y1="185" x2="560" y2="185"/>
		<line x1="10" y1="205" x2="560" y2="205"/>
		<line x1="10" y1="225" x2="560" y2="225"/>
		<line x1="10" y1="245" x2="560" y2="245"/>
		<line x1="10" y1="265" x2="560" y2="265"/>
		<line x1="10" y1="285" x2="560" y2="285"/>
		<line x1="10" y1="305" x2="560" y2="305"/>
		<line x1="10" y1="325" x2="560" y2="325"/>
		<line x1="10" y1="345" x2="560" y2="345" style="stroke: black; stroke-width:0.5;"/>
		<line x1="10" y1="347" x2="560" y2="347" style="stroke: black; stroke-width:0.5;"/>
		
		
		
		
		<!--
		<line x1="10" y1="300" x2="540" y2="300"/>
		<line x1="10" y1="315" x2="540" y2="315"/>
		-->
		<!--legend lines-->
		<line x1="60" y1="390" x2="320" y2="390"/>
		<line x1="60" y1="415" x2="320" y2="415"/>
		<!--<line x1="60" y1="415" x2="560" y2="415"/>-->
		</g>
		
		<g>
		
	
		<text x="205" y="80" class="st0 st29 ">JAN</text>
		<text x="235" y="80" class="st0 st29 ">FEB</text>
		<text x="265" y="80" class="st0 st29 ">MAR</text>
		<text x="295" y="80" class="st0 st29 ">APR</text>		
		<text x="325" y="80" class="st0 st29 ">MAY</text>		
		<text x="355" y="80" class="st0 st29 ">JUN</text>		
		<text x="385" y="80" class="st0 st29 ">JUL</text>		
		<text x="415" y="80" class="st0 st29 ">AUG</text>		
		<text x="445" y="80" class="st0 st29 ">SEP</text>   		
		<text x="475" y="80" class="st0 st29 ">OCT</text>		
		<text x="505" y="80" class="st0 st29 ">NOV</text>		
		<text x="535" y="80" class="st0 st29 ">DEC</text>
		
		
		<line x1="60" y1="365" x2="60" y2="444"/>
		<line x1="300" y1="365" x2="300" y2="444"/>
		<line x1="320" y1="365" x2="320" y2="444"/>
		</g>
		
		<g id=" Vertical transparent bars" class="st4">
		<rect x="110" y="85" width="30" height="275"/>
		<rect x="170" y="85" width="30" height="275"/>
		</g>
		
		
		<g id="Legend boxes" transform="translate(305, 347)">
		<!-- <rect x="0" y="0" width="10" height="10" class="st16"/> -->
		<rect x="0" y="31" width="10" height="10" class="st16"/>
		<rect x="0" y="56" width="10" height="10" class="st40"/>
		</g>
		
				
<!-- Text Section -->

		<!-- Head -->
		<text x="135" y="26" class="st11 st13 st30">DSI Customer Device Migrations</text>
		
		<!-- Sub Head -->
		<text x="235" y="40" class="st22 st0 st29 st1">As of May 6, 2004</text>

<!--Early adopter constant-->
<g>
		<text x="14" y="100" class="st29">Early Adopters</text>
 		<text x="0" y="-17" class="st20 st28 st24 st41" transform="translate(137, 117)">141</text>
</g>
<g>

		<text x="0" y="-17" class="st3 st28 st24 st41" transform="translate(167, 117)">141</text>
</g>
<g>
		<text x="0" y="-17" class="st2 st28 st41" transform="translate(196, 117)">100%</text>
</g>



<g>
		<text x="14" y="120" class="st29">Audit</text>
 		<text x="0" y="3" class="st20 st28 st24 st41" transform="translate(137, 117)">45</text>
</g>


<g>

		<text x="0" y="3" class="st3 st28 st24 st41" transform="translate(167, 117)">0</text>
</g>



<g>
		<text x="0" y="3" class="st2 st28 st41" transform="translate(196, 117)"> 0%</text>
</g>

<!--<g id="Yellow Paths" class="st14">
		<rect x="260" y="105" width="0" height="15"/>
</g>
<g id="Blue Paths" class="st38">
		<rect x="320" y="106" width="30" height="20"/>
</g>-->






<!--blue-->
<g>
		<rect x="320" y="108" width="30" height="13" class="st38"/>
</g>
<!--yellow-->




<g>
<rect x="201" y="108" width="126" height="13" class="st14"/>
</g>





<!--
<text x="235" y="100" class="st0 st29 ">FEB</text>
		<text x="265" y="100" class="st0 st29 ">MAR</text>
		<text x="295" y="100" class="st0 st29 ">APR</text>		
		<text x="325" y="100" class="st0 st29 ">MAY</text>		
		<text x="355" y="100" class="st0 st29 ">JUN</text>		
		<text x="385" y="100" class="st0 st29 ">JUL</text>		
		<text x="415" y="100" class="st0 st29 ">AUG</text>		
		<text x="445" y="100" class="st0 st29 ">SEP</text>   		
		<text x="475" y="100" class="st0 st29 ">OCT</text>		
		<text x="505" y="100" class="st0 st29 ">NOV</text>		
		<text x="535" y="100" class="st0 st29 ">DEC</text>
-->

<g>
<rect x="201" y="108" width="126" height="13" class="st14"/>
</g>






<g>
		<text x="14" y="140" class="st29">Automation</text>
 		<text x="0" y="23" class="st20 st28 st24 st41" transform="translate(137, 117)">620</text>
</g>


<g>

		<text x="0" y="23" class="st3 st28 st24 st41" transform="translate(167, 117)">537</text>
</g>



<g>
		<text x="0" y="23" class="st2 st28 st41" transform="translate(196, 117)">87%</text>
</g>

<!--<g id="Yellow Paths" class="st14">
		<rect x="260" y="105" width="0" height="15"/>
</g>
<g id="Blue Paths" class="st38">
		<rect x="320" y="106" width="30" height="20"/>
</g>-->






<!--blue-->
<g>
		<rect x="200" y="128" width="120" height="13" class="st38"/>
</g>
<!--yellow-->




<g>
<rect x="201" y="128" width="126" height="13" class="st14"/>
</g>





<!--
<text x="235" y="100" class="st0 st29 ">FEB</text>
		<text x="265" y="100" class="st0 st29 ">MAR</text>
		<text x="295" y="100" class="st0 st29 ">APR</text>		
		<text x="325" y="100" class="st0 st29 ">MAY</text>		
		<text x="355" y="100" class="st0 st29 ">JUN</text>		
		<text x="385" y="100" class="st0 st29 ">JUL</text>		
		<text x="415" y="100" class="st0 st29 ">AUG</text>		
		<text x="445" y="100" class="st0 st29 ">SEP</text>   		
		<text x="475" y="100" class="st0 st29 ">OCT</text>		
		<text x="505" y="100" class="st0 st29 ">NOV</text>		
		<text x="535" y="100" class="st0 st29 ">DEC</text>
-->

<g>
<rect x="201" y="128" width="126" height="13" class="st14"/>
</g>






<g>
		<text x="14" y="160" class="st29">Bank Sup</text>
 		<text x="0" y="43" class="st20 st28 st24 st41" transform="translate(137, 117)">634</text>
</g>


<g>

		<text x="0" y="43" class="st3 st28 st24 st41" transform="translate(167, 117)">304</text>
</g>



<g>
		<text x="0" y="43" class="st2 st28 st41" transform="translate(196, 117)">48%</text>
</g>

<!--<g id="Yellow Paths" class="st14">
		<rect x="260" y="105" width="0" height="15"/>
</g>
<g id="Blue Paths" class="st38">
		<rect x="320" y="106" width="30" height="20"/>
</g>-->






<!--blue-->
<g>
		<rect x="260" y="148" width="120" height="13" class="st38"/>
</g>
<!--yellow-->




<g>
<rect x="201" y="148" width="126" height="13" class="st14"/>
</g>





<!--
<text x="235" y="100" class="st0 st29 ">FEB</text>
		<text x="265" y="100" class="st0 st29 ">MAR</text>
		<text x="295" y="100" class="st0 st29 ">APR</text>		
		<text x="325" y="100" class="st0 st29 ">MAY</text>		
		<text x="355" y="100" class="st0 st29 ">JUN</text>		
		<text x="385" y="100" class="st0 st29 ">JUL</text>		
		<text x="415" y="100" class="st0 st29 ">AUG</text>		
		<text x="445" y="100" class="st0 st29 ">SEP</text>   		
		<text x="475" y="100" class="st0 st29 ">OCT</text>		
		<text x="505" y="100" class="st0 st29 ">NOV</text>		
		<text x="535" y="100" class="st0 st29 ">DEC</text>
-->

<g>
<rect x="201" y="148" width="126" height="13" class="st14"/>
</g>






<g>
		<text x="14" y="180" class="st29">Corporate</text>
 		<text x="0" y="63" class="st20 st28 st24 st41" transform="translate(137, 117)">197</text>
</g>


<g>

		<text x="0" y="63" class="st3 st28 st24 st41" transform="translate(167, 117)">136</text>
</g>



<g>
		<text x="0" y="63" class="st2 st28 st41" transform="translate(196, 117)">69%</text>
</g>

<!--<g id="Yellow Paths" class="st14">
		<rect x="260" y="105" width="0" height="15"/>
</g>
<g id="Blue Paths" class="st38">
		<rect x="320" y="106" width="30" height="20"/>
</g>-->






<g>
		<rect x="290" y="168" width="30" height="13" class="st38"/>
</g>
<g>
		<rect x="350" y="168" width="30" height="13" class="st38"/>
</g>

<g>
<rect x="201" y="168" width="126" height="13" class="st14"/>
</g>





<!--
<text x="235" y="100" class="st0 st29 ">FEB</text>
		<text x="265" y="100" class="st0 st29 ">MAR</text>
		<text x="295" y="100" class="st0 st29 ">APR</text>		
		<text x="325" y="100" class="st0 st29 ">MAY</text>		
		<text x="355" y="100" class="st0 st29 ">JUN</text>		
		<text x="385" y="100" class="st0 st29 ">JUL</text>		
		<text x="415" y="100" class="st0 st29 ">AUG</text>		
		<text x="445" y="100" class="st0 st29 ">SEP</text>   		
		<text x="475" y="100" class="st0 st29 ">OCT</text>		
		<text x="505" y="100" class="st0 st29 ">NOV</text>		
		<text x="535" y="100" class="st0 st29 ">DEC</text>
-->

<g>
<rect x="201" y="168" width="126" height="13" class="st14"/>
</g>






<g>
		<text x="14" y="200" class="st29">Emerging Markets</text>
 		<text x="0" y="83" class="st20 st28 st24 st41" transform="translate(137, 117)">66</text>
</g>


<g>

		<text x="0" y="83" class="st3 st28 st24 st41" transform="translate(167, 117)">0</text>
</g>



<g>
		<text x="0" y="83" class="st2 st28 st41" transform="translate(196, 117)"> 0%</text>
</g>

<!--<g id="Yellow Paths" class="st14">
		<rect x="260" y="105" width="0" height="15"/>
</g>
<g id="Blue Paths" class="st38">
		<rect x="320" y="106" width="30" height="20"/>
</g>-->






<!--blue-->
<g>
		<rect x="380" y="188" width="30" height="13" class="st38"/>
</g>
<!--yellow-->


<g>
<rect x="201" y="188" width="126" height="13" class="st14"/>
</g>





<!--
<text x="235" y="100" class="st0 st29 ">FEB</text>
		<text x="265" y="100" class="st0 st29 ">MAR</text>
		<text x="295" y="100" class="st0 st29 ">APR</text>		
		<text x="325" y="100" class="st0 st29 ">MAY</text>		
		<text x="355" y="100" class="st0 st29 ">JUN</text>		
		<text x="385" y="100" class="st0 st29 ">JUL</text>		
		<text x="415" y="100" class="st0 st29 ">AUG</text>		
		<text x="445" y="100" class="st0 st29 ">SEP</text>   		
		<text x="475" y="100" class="st0 st29 ">OCT</text>		
		<text x="505" y="100" class="st0 st29 ">NOV</text>		
		<text x="535" y="100" class="st0 st29 ">DEC</text>
-->

<g>
<rect x="201" y="188" width="126" height="13" class="st14"/>
</g>






<g>
		<text x="14" y="220" class="st29">Exec Offices</text>
 		<text x="0" y="103" class="st20 st28 st24 st41" transform="translate(137, 117)">230</text>
</g>


<g>

		<text x="0" y="103" class="st3 st28 st24 st41" transform="translate(167, 117)">39</text>
</g>



<g>
		<text x="0" y="103" class="st2 st28 st41" transform="translate(196, 117)">17%</text>
</g>

<!--<g id="Yellow Paths" class="st14">
		<rect x="260" y="105" width="0" height="15"/>
</g>
<g id="Blue Paths" class="st38">
		<rect x="320" y="106" width="30" height="20"/>
</g>-->






<g>
		<rect x="320" y="208" width="60" height="13" class="st38"/>
</g>
<g>
		<rect x="500" y="208" width="30" height="13" class="st38"/>
</g>

<g>
<rect x="201" y="208" width="126" height="13" class="st14"/>
</g>





<!--
<text x="235" y="100" class="st0 st29 ">FEB</text>
		<text x="265" y="100" class="st0 st29 ">MAR</text>
		<text x="295" y="100" class="st0 st29 ">APR</text>		
		<text x="325" y="100" class="st0 st29 ">MAY</text>		
		<text x="355" y="100" class="st0 st29 ">JUN</text>		
		<text x="385" y="100" class="st0 st29 ">JUL</text>		
		<text x="415" y="100" class="st0 st29 ">AUG</text>		
		<text x="445" y="100" class="st0 st29 ">SEP</text>   		
		<text x="475" y="100" class="st0 st29 ">OCT</text>		
		<text x="505" y="100" class="st0 st29 ">NOV</text>		
		<text x="535" y="100" class="st0 st29 ">DEC</text>
-->

<g>
<rect x="201" y="208" width="126" height="13" class="st14"/>
</g>






<g>
		<text x="14" y="240" class="st29">Financial Services</text>
 		<text x="0" y="123" class="st20 st28 st24 st41" transform="translate(137, 117)">532</text>
</g>


<g>

		<text x="0" y="123" class="st3 st28 st24 st41" transform="translate(167, 117)">9</text>
</g>



<g>
		<text x="0" y="123" class="st2 st28 st41" transform="translate(196, 117)"> 2%</text>
</g>

<!--<g id="Yellow Paths" class="st14">
		<rect x="260" y="105" width="0" height="15"/>
</g>
<g id="Blue Paths" class="st38">
		<rect x="320" y="106" width="30" height="20"/>
</g>-->






<g>
		<rect x="200" y="228" width="30" height="13" class="st38"/>
</g>
<g>
		<rect x="260" y="228" width="30" height="13" class="st38"/>
</g>
<g>
		<rect x="320" y="228" width="240" height="13" class="st38"/>
</g>

<g>
<rect x="201" y="228" width="126" height="13" class="st14"/>
</g>





<!--
<text x="235" y="100" class="st0 st29 ">FEB</text>
		<text x="265" y="100" class="st0 st29 ">MAR</text>
		<text x="295" y="100" class="st0 st29 ">APR</text>		
		<text x="325" y="100" class="st0 st29 ">MAY</text>		
		<text x="355" y="100" class="st0 st29 ">JUN</text>		
		<text x="385" y="100" class="st0 st29 ">JUL</text>		
		<text x="415" y="100" class="st0 st29 ">AUG</text>		
		<text x="445" y="100" class="st0 st29 ">SEP</text>   		
		<text x="475" y="100" class="st0 st29 ">OCT</text>		
		<text x="505" y="100" class="st0 st29 ">NOV</text>		
		<text x="535" y="100" class="st0 st29 ">DEC</text>
-->

<g>
<rect x="201" y="228" width="126" height="13" class="st14"/>
</g>






<g>
		<text x="14" y="260" class="st29">Legal</text>
 		<text x="0" y="143" class="st20 st28 st24 st41" transform="translate(137, 117)">203</text>
</g>


<g>

		<text x="0" y="143" class="st3 st28 st24 st41" transform="translate(167, 117)">23</text>
</g>



<g>
		<text x="0" y="143" class="st2 st28 st41" transform="translate(196, 117)">11%</text>
</g>

<!--<g id="Yellow Paths" class="st14">
		<rect x="260" y="105" width="0" height="15"/>
</g>
<g id="Blue Paths" class="st38">
		<rect x="320" y="106" width="30" height="20"/>
</g>-->






<g>
		<rect x="320" y="248" width="30" height="13" class="st38"/>
</g>
<g>
		<rect x="410" y="248" width="60" height="13" class="st38"/>
</g>

<g>
<rect x="201" y="248" width="126" height="13" class="st14"/>
</g>





<!--
<text x="235" y="100" class="st0 st29 ">FEB</text>
		<text x="265" y="100" class="st0 st29 ">MAR</text>
		<text x="295" y="100" class="st0 st29 ">APR</text>		
		<text x="325" y="100" class="st0 st29 ">MAY</text>		
		<text x="355" y="100" class="st0 st29 ">JUN</text>		
		<text x="385" y="100" class="st0 st29 ">JUL</text>		
		<text x="415" y="100" class="st0 st29 ">AUG</text>		
		<text x="445" y="100" class="st0 st29 ">SEP</text>   		
		<text x="475" y="100" class="st0 st29 ">OCT</text>		
		<text x="505" y="100" class="st0 st29 ">NOV</text>		
		<text x="535" y="100" class="st0 st29 ">DEC</text>
-->

<g>
<rect x="201" y="248" width="126" height="13" class="st14"/>
</g>






<g>
		<text x="14" y="280" class="st29">Markets</text>
 		<text x="0" y="163" class="st20 st28 st24 st41" transform="translate(137, 117)">409</text>
</g>


<g>

		<text x="0" y="163" class="st3 st28 st24 st41" transform="translate(167, 117)">2</text>
</g>



<g>
		<text x="0" y="163" class="st2 st28 st41" transform="translate(196, 117)"> 0%</text>
</g>

<!--<g id="Yellow Paths" class="st14">
		<rect x="260" y="105" width="0" height="15"/>
</g>
<g id="Blue Paths" class="st38">
		<rect x="320" y="106" width="30" height="20"/>
</g>-->






<!--blue-->
<g>
		<rect x="320" y="268" width="120" height="13" class="st38"/>
</g>
<!--yellow-->




<g>
<rect x="201" y="268" width="126" height="13" class="st14"/>
</g>





<!--
<text x="235" y="100" class="st0 st29 ">FEB</text>
		<text x="265" y="100" class="st0 st29 ">MAR</text>
		<text x="295" y="100" class="st0 st29 ">APR</text>		
		<text x="325" y="100" class="st0 st29 ">MAY</text>		
		<text x="355" y="100" class="st0 st29 ">JUN</text>		
		<text x="385" y="100" class="st0 st29 ">JUL</text>		
		<text x="415" y="100" class="st0 st29 ">AUG</text>		
		<text x="445" y="100" class="st0 st29 ">SEP</text>   		
		<text x="475" y="100" class="st0 st29 ">OCT</text>		
		<text x="505" y="100" class="st0 st29 ">NOV</text>		
		<text x="535" y="100" class="st0 st29 ">DEC</text>
-->

<g>
<rect x="201" y="268" width="126" height="13" class="st14"/>
</g>






<g>
		<text x="14" y="300" class="st29">OEB</text>
 		<text x="0" y="183" class="st20 st28 st24 st41" transform="translate(137, 117)">44</text>
</g>


<g>

		<text x="0" y="183" class="st3 st28 st24 st41" transform="translate(167, 117)">0</text>
</g>



<g>
		<text x="0" y="183" class="st2 st28 st41" transform="translate(196, 117)"> 0%</text>
</g>

<!--<g id="Yellow Paths" class="st14">
		<rect x="260" y="105" width="0" height="15"/>
</g>
<g id="Blue Paths" class="st38">
		<rect x="320" y="106" width="30" height="20"/>
</g>-->






<!--blue-->
<g>
		<rect x="470" y="288" width="30" height="13" class="st38"/>
</g>
<!--yellow-->


<g>
<rect x="201" y="288" width="126" height="13" class="st14"/>
</g>





<!--
<text x="235" y="100" class="st0 st29 ">FEB</text>
		<text x="265" y="100" class="st0 st29 ">MAR</text>
		<text x="295" y="100" class="st0 st29 ">APR</text>		
		<text x="325" y="100" class="st0 st29 ">MAY</text>		
		<text x="355" y="100" class="st0 st29 ">JUN</text>		
		<text x="385" y="100" class="st0 st29 ">JUL</text>		
		<text x="415" y="100" class="st0 st29 ">AUG</text>		
		<text x="445" y="100" class="st0 st29 ">SEP</text>   		
		<text x="475" y="100" class="st0 st29 ">OCT</text>		
		<text x="505" y="100" class="st0 st29 ">NOV</text>		
		<text x="535" y="100" class="st0 st29 ">DEC</text>
-->

<g>
<rect x="201" y="288" width="126" height="13" class="st14"/>
</g>






<g>
		<text x="14" y="320" class="st29">Research</text>
 		<text x="0" y="203" class="st20 st28 st24 st41" transform="translate(137, 117)">399</text>
</g>


<g>

		<text x="0" y="203" class="st3 st28 st24 st41" transform="translate(167, 117)">0</text>
</g>



<g>
		<text x="0" y="203" class="st2 st28 st41" transform="translate(196, 117)"> 0%</text>
</g>

<!--<g id="Yellow Paths" class="st14">
		<rect x="260" y="105" width="0" height="15"/>
</g>
<g id="Blue Paths" class="st38">
		<rect x="320" y="106" width="30" height="20"/>
</g>-->






<!--blue-->
<g>
		<rect x="440" y="308" width="60" height="13" class="st38"/>
</g>
<!--yellow-->


<g>
<rect x="201" y="308" width="126" height="13" class="st14"/>
</g>





<!--
<text x="235" y="100" class="st0 st29 ">FEB</text>
		<text x="265" y="100" class="st0 st29 ">MAR</text>
		<text x="295" y="100" class="st0 st29 ">APR</text>		
		<text x="325" y="100" class="st0 st29 ">MAY</text>		
		<text x="355" y="100" class="st0 st29 ">JUN</text>		
		<text x="385" y="100" class="st0 st29 ">JUL</text>		
		<text x="415" y="100" class="st0 st29 ">AUG</text>		
		<text x="445" y="100" class="st0 st29 ">SEP</text>   		
		<text x="475" y="100" class="st0 st29 ">OCT</text>		
		<text x="505" y="100" class="st0 st29 ">NOV</text>		
		<text x="535" y="100" class="st0 st29 ">DEC</text>
-->

<g>
<rect x="201" y="308" width="126" height="13" class="st14"/>
</g>






<g>
		<text x="14" y="340" class="st29">10th Floor</text>
 		<text x="0" y="223" class="st20 st28 st24 st41" transform="translate(137, 117)">0</text>
</g>


<g>

		<text x="0" y="223" class="st3 st28 st24 st41" transform="translate(167, 117)">0</text>
</g>



<g>
		<text x="0" y="223" class="st2 st28 st41" transform="translate(196, 117)"> 0%</text>
</g>

<!--<g id="Yellow Paths" class="st14">
		<rect x="260" y="105" width="0" height="15"/>
</g>
<g id="Blue Paths" class="st38">
		<rect x="320" y="106" width="30" height="20"/>
</g>-->






<!--blue-->
<g>
		<rect x="" y="328" width="" height="13" class="st38"/>
</g>
<!--yellow-->


<g>
<rect x="201" y="328" width="126" height="13" class="st14"/>
</g>





<!--
<text x="235" y="100" class="st0 st29 ">FEB</text>
		<text x="265" y="100" class="st0 st29 ">MAR</text>
		<text x="295" y="100" class="st0 st29 ">APR</text>		
		<text x="325" y="100" class="st0 st29 ">MAY</text>		
		<text x="355" y="100" class="st0 st29 ">JUN</text>		
		<text x="385" y="100" class="st0 st29 ">JUL</text>		
		<text x="415" y="100" class="st0 st29 ">AUG</text>		
		<text x="445" y="100" class="st0 st29 ">SEP</text>   		
		<text x="475" y="100" class="st0 st29 ">OCT</text>		
		<text x="505" y="100" class="st0 st29 ">NOV</text>		
		<text x="535" y="100" class="st0 st29 ">DEC</text>
-->

<g>
<rect x="201" y="328" width="126" height="13" class="st14"/>
</g>








<g>
<rect x="200" y="108" width="120" height="13" class="st44"/>
<rect x="350" y="108" width="210" height="13" class="st44"/>
<rect x="320" y="128" width="240" height="13" class="st44"/>
<rect x="200" y="148" width="60" height="13" class="st44"/>
<rect x="380" y="148" width="180" height="13" class="st44"/>
<rect x="200" y="168" width="90" height="13" class="st44"/>
<rect x="320" y="168" width="30" height="13" class="st44"/>
<rect x="380" y="168" width="180" height="13" class="st44"/>
<rect x="200" y="188" width="180" height="13" class="st44"/>
<rect x="410" y="188" width="150" height="13" class="st44"/>
<rect x="200" y="208" width="120" height="13" class="st44"/>
<rect x="380" y="208" width="120" height="13" class="st44"/>
<rect x="530" y="208" width="30" height="13" class="st44"/>
<rect x="230" y="228" width="30" height="13" class="st44"/>
<rect x="290" y="228" width="30" height="13" class="st44"/>
<rect x="200" y="248" width="120" height="13" class="st44"/>
<rect x="350" y="248" width="60" height="13" class="st44"/>
<rect x="470" y="248" width="90" height="13" class="st44"/>
<rect x="200" y="268" width="120" height="13" class="st44"/>
<rect x="440" y="268" width="120" height="13" class="st44"/>
<rect x="200" y="288" width="270" height="13" class="st44"/>
<rect x="500" y="288" width="60" height="13" class="st44"/>
<rect x="200" y="308" width="240" height="13" class="st44"/>
<rect x="500" y="308" width="60" height="13" class="st44"/>
<rect x="200" y="328" width="360" height="13" class="st44"/>
</g>
		
		






<!--Audit-->







<g>
<text x="335" y="120" class="st0 st45 ">0 / 45</text>
</g>



<!--Automation-->


<!--Bank Sup-->

<!--Corporate-->

<!--Emerging Markets-->

<!--Exec Offices-->

<!--Financial Services-->

<!--Legal-->

<!--Markets-->

<!--OEB-->

<!--Research-->

<!--10th floor-->





<!--Audit-->


<!--Automation-->







<g>
<text x="215" y="140" class="st0 st45 ">33 / 33</text>
</g>








<g>
<text x="245" y="140" class="st0 st45 ">110 / 125</text>
</g>








<g>
<text x="275" y="140" class="st0 st45 ">286 / 330</text>
</g>








<g>
<text x="305" y="140" class="st0 st45 ">108 / 132</text>
</g>



<!--Bank Sup-->

<!--Corporate-->

<!--Emerging Markets-->

<!--Exec Offices-->

<!--Financial Services-->

<!--Legal-->

<!--Markets-->

<!--OEB-->

<!--Research-->

<!--10th floor-->





<!--Audit-->


<!--Automation-->


<!--Bank Sup-->







<g>
<text x="275" y="160" class="st0 st45 ">94 / 94</text>
</g>







<g>
<text x="305" y="160" class="st0 st45 ">167 / 198</text>
</g>







<g>
<text x="335" y="160" class="st0 st45 ">43 / 184</text>
</g>






<g>
<text x="365" y="160" class="st0 st45 ">0 / 158</text>
</g>


<!--Corporate-->

<!--Emerging Markets-->

<!--Exec Offices-->

<!--Financial Services-->

<!--Legal-->

<!--Markets-->

<!--OEB-->

<!--Research-->

<!--10th floor-->





<!--Audit-->


<!--Automation-->


<!--Bank Sup-->

<!--Corporate-->







<g>
<text x="305" y="180" class="st0 st45 ">136 / 170</text>
</g>






<g>
<text x="365" y="180" class="st0 st45 ">0 / 27</text>
</g>


<!--Emerging Markets-->

<!--Exec Offices-->

<!--Financial Services-->

<!--Legal-->

<!--Markets-->

<!--OEB-->

<!--Research-->

<!--10th floor-->





<!--Audit-->


<!--Automation-->


<!--Bank Sup-->

<!--Corporate-->

<!--Emerging Markets-->






<g>
<text x="395" y="200" class="st0 st45 ">0 / 65</text>
</g>


<!--Exec Offices-->

<!--Financial Services-->

<!--Legal-->

<!--Markets-->

<!--OEB-->

<!--Research-->

<!--10th floor-->





<!--Audit-->


<!--Automation-->


<!--Bank Sup-->

<!--Corporate-->

<!--Emerging Markets-->

<!--Exec Offices-->







<g>
<text x="335" y="220" class="st0 st45 ">39 / 133</text>
</g>






<g>
<text x="365" y="220" class="st0 st45 ">0 / 79</text>
</g>







<g>
<text x="515" y="220" class="st0 st45 ">0 / 18</text>
</g>


<!--Financial Services-->

<!--Legal-->

<!--Markets-->

<!--OEB-->

<!--Research-->

<!--10th floor-->





<!--Audit-->


<!--Automation-->


<!--Bank Sup-->

<!--Corporate-->

<!--Emerging Markets-->

<!--Exec Offices-->

<!--Financial Services-->







<g>
<text x="215" y="240" class="st0 st45 ">4 / 4</text>
</g>







<g>
<text x="275" y="240" class="st0 st45 ">1 / 1</text>
</g>







<g>
<text x="335" y="240" class="st0 st45 ">4 / 8</text>
</g>






<g>
<text x="365" y="240" class="st0 st45 ">0 / 101</text>
</g>






<g>
<text x="395" y="240" class="st0 st45 ">0 / 101</text>
</g>






<g>
<text x="425" y="240" class="st0 st45 ">0 / 60</text>
</g>






<g>
<text x="455" y="240" class="st0 st45 ">0 / 60</text>
</g>






<g>
<text x="485" y="240" class="st0 st45 ">0 / 60</text>
</g>






<g>
<text x="515" y="240" class="st0 st45 ">0 / 128</text>
</g>






<g>
<text x="545" y="240" class="st0 st45 ">0 / 8</text>
</g>


<!--Legal-->

<!--Markets-->

<!--OEB-->

<!--Research-->

<!--10th floor-->





<!--Audit-->


<!--Automation-->


<!--Bank Sup-->

<!--Corporate-->

<!--Emerging Markets-->

<!--Exec Offices-->

<!--Financial Services-->

<!--Legal-->







<g>
<text x="335" y="260" class="st0 st45 ">22 / 55</text>
</g>






<g>
<text x="425" y="260" class="st0 st45 ">0 / 114</text>
</g>






<g>
<text x="455" y="260" class="st0 st45 ">0 / 29</text>
</g>


<!--Markets-->

<!--OEB-->

<!--Research-->

<!--10th floor-->





<!--Audit-->


<!--Automation-->


<!--Bank Sup-->

<!--Corporate-->

<!--Emerging Markets-->

<!--Exec Offices-->

<!--Financial Services-->

<!--Legal-->

<!--Markets-->







<g>
<text x="335" y="280" class="st0 st45 ">0 / 80</text>
</g>






<g>
<text x="365" y="280" class="st0 st45 ">0 / 80</text>
</g>






<g>
<text x="395" y="280" class="st0 st45 ">0 / 170</text>
</g>






<g>
<text x="425" y="280" class="st0 st45 ">0 / 160</text>
</g>


<!--OEB-->

<!--Research-->

<!--10th floor-->





<!--Audit-->


<!--Automation-->


<!--Bank Sup-->

<!--Corporate-->

<!--Emerging Markets-->

<!--Exec Offices-->

<!--Financial Services-->

<!--Legal-->

<!--Markets-->

<!--OEB-->






<g>
<text x="485" y="300" class="st0 st45 ">0 / 44</text>
</g>


<!--Research-->

<!--10th floor-->





<!--Audit-->


<!--Automation-->


<!--Bank Sup-->

<!--Corporate-->

<!--Emerging Markets-->

<!--Exec Offices-->

<!--Financial Services-->

<!--Legal-->

<!--Markets-->

<!--OEB-->

<!--Research-->






<g>
<text x="455" y="320" class="st0 st45 ">0 / 264</text>
</g>






<g>
<text x="485" y="320" class="st0 st45 ">0 / 135</text>
</g>


<!--10th floor-->





<!--Audit-->


<!--Automation-->


<!--Bank Sup-->

<!--Corporate-->

<!--Emerging Markets-->

<!--Exec Offices-->

<!--Financial Services-->

<!--Legal-->

<!--Markets-->

<!--OEB-->

<!--Research-->

<!--10th floor-->



<!--totals-->

































<g class="st0 st45 st11">
<text x="216" y="357">37 / 37</text>
</g>









<g class="st0 st45 st11">
<text x="246" y="357">110 / 125</text>
</g>









<g class="st0 st45 st11">
<text x="276" y="357">348 / 425</text>
</g>









<g class="st0 st45 st11">
<text x="306" y="357">357 / 500</text>
</g>









<g class="st0 st45 st11">
<text x="336" y="357">108 / 505</text>
</g>








<g class="st0 st45 st11">
<text x="366" y="357">0 / 445</text>
</g>








<g class="st0 st45 st11">
<text x="396" y="357">0 / 336</text>
</g>








<g class="st0 st45 st11">
<text x="426" y="357">0 / 334</text>
</g>








<g class="st0 st45 st11">
<text x="456" y="357">0 / 353</text>
</g>








<g class="st0 st45 st11">
<text x="486" y="357">0 / 239</text>
</g>








<g class="st0 st45 st11">
<text x="516" y="357">0 / 146</text>
</g>








<g class="st0 st45 st11">
<text x="546" y="357">0 / 8</text>
</g>









<g>
<text x="14" y="357" class="st47 st11">Totals</text>
<text x="0" y="240" class="st20 st28 st24 st41" transform="translate(137, 117)">3520</text>
<text x="0" y="240" class="st3 st28 st24 st41" transform="translate(167, 117)">1191</text>
<text x="0" y="240" class="st2 st28 st41" transform="translate(196, 117)">34%</text>
</g>


		
		<!-- Graph Head -->
		<text x="315" y="68" class="st0 st29 st15">Monthly Schedule</text>
		<text x="14" y="68" class="st0 st29 st15">Group</text>
		<text x="112" y="68" class="st0 st29 st15">*Est</text>
		<text x="142" y="68" class="st0 st29 st15">Done</text>
		<text x="180" y="68" class="st0 st29 st15">%</text>
		
		<!-- Legend Lable -->
		<text x="19" y="375" class="st22 st13 st28">Legend:</text>
		
		<g id="Legend Body labels" class="st26 st28 st24" transform="translate(65, 355)">
		<text x="0" y="76">*Note this estimate may change</text>
		<text x="0" y="28">Current position in the year</text>
		<text x="0" y="52">Estimated time frame to Migrate Group</text>
		</g>
<!-- Calculate Variance Information -->























<g id="variance" class="st20 st48" transform="translate(382, 360)">
		<text x="-35" y="35">Variance for the week of April 26, 2004</text>
</g>
<g id="variance" class="st20 st48" transform="translate(382, 360)">		
		<text x="-40" y="55">Scheduled</text>
		<text x="-20" y="65">104</text>
		
		<text x="40" y="55">Migrated</text>
		<text x="55" y="65">94</text>
		
		<text x="110" y="55">Variance</text>
		<text x="125" y="65">-10</text>
</g>






<!--
<g id="variance" class="st20 st49" transform="translate(382, 360)">		
		<text x="-50" y="63">Total</text>
		<text x="-60" y="70">Scheduled</text>
		<text x="-50" y="80">1222</text>
		
		<text x="8" y="63">Total</text>
		<text x="0" y="70">Migrated</text>
		<text x="8" y="80">1085</text>
		
		<text x="50" y="63">Rescheduled</text>
		<text x="60" y="70">Variance</text>
		<text x="70" y="80">17</text>
		
		<text x="125" y="63">Adjusted</text>
		<text x="125" y="70">Variance</text>
		<text x="135" y="80">-120</text>
</g>-->



<!-- End -->


 
		
		
		

		
<!--
		<g id="J column" class="st26 st28 st27 st41" transform="translate(217, 117)">
		<text x="0" y="0"></text>
		
		<text x="2" y="15">37</text>
		<text x="-7" y="9">37</text>
		
		<text x="0" y="30"></text>
		<text x="0" y="45"></text>
		<text x="0" y="60"></text>
		<text x="0" y="75"></text>
		
		<text x="0" y="90">4</text>
		<text x="-10" y="85">4</text>
		
		<text x="0" y="105"></text>
		<text x="0" y="120"></text>
		<text x="0" y="135"></text>
		<text x="0" y="150"></text>
		<text x="0" y="165"></text>
		<text x="0" y="180"></text>
		<text x="0" y="195"></text> 
		
		</g>

		<g id="F column" class="st26 st28 st27 st41" transform="translate(237, 117)">
		<text x="0" y="0"></text>
		
		<text x="2" y="15">147</text>
		<text x="-6" y="9">95</text>
		
		<text x="0" y="30"></text>
		<text x="0" y="45"></text>
		<text x="0" y="60"></text>
		<text x="0" y="75"></text>
		<text x="0" y="90"></text>
		<text x="0" y="105"></text>
		<text x="0" y="120"></text>
		<text x="0" y="135"></text>
		<text x="0" y="150"></text>
		<text x="0" y="165"></text>
		<text x="0" y="180"></text>
		<text x="0" y="195"></text> 
		
		</g>

		<g id="M column" class="st26 st28 st27 st41" transform="translate(257, 117)">
		<text x="0" y="0"></text>
		
		<text x="2" y="15">483</text>
		<text x="-10" y="9">0</text>
		
		<text x="2" y="30">136</text>
		<text x="-10" y="24">0</text>
		
		<text x="0" y="45"></text>
		<text x="0" y="60"></text>
		<text x="0" y="75"></text>
		<text x="0" y="90"></text>
		<text x="0" y="105"></text>
		<text x="0" y="120"></text>
		<text x="0" y="135"></text>
		<text x="0" y="150"></text>
		<text x="0" y="165"></text>
		<text x="0" y="180"></text>
		<text x="0" y="195"></text> 
		
		</g>

		<g id="A column" class="st26 st28 st27 st41" transform="translate(277, 117)">
		<text x="0" y="0"></text>
		<text x="0" y="15"></text>
		
		<text x="1" y="30">198</text>
		<text x="-10" y="24">0</text>
		
		<text x="1" y="45">175</text>
		<text x="-10" y="39">0</text>
		
		<text x="0" y="60"></text>
		<text x="0" y="75"></text>
		<text x="0" y="90"></text>
		
		<text x="2" y="105">60</text>
		<text x="-10" y="99">0</text>
		
		<text x="0" y="120"></text>
		<text x="0" y="135"></text>
		<text x="0" y="150"></text>
		<text x="0" y="165"></text>
		<text x="0" y="180"></text>
		<text x="0" y="195"></text> 
		
		</g>

		<g id="M column" class="st26 st28 st27 st41" transform="translate(297, 117)">
		<text x="0" y="0"></text>
		<text x="0" y="15"></text>
		
		<text x="1" y="30">184</text>
		<text x="-10" y="24">0</text>
		
		<text x="0" y="45"></text>
		<text x="0" y="60"></text>
		
		<text x="2" y="75">20</text>
		<text x="-10" y="69">0</text>
		
		<text x="0" y="90"></text>
		<text x="0" y="105"></text>
		
		<text x="1" y="120">160</text>
		<text x="-10" y="114">0</text>
		
		<text x="0" y="135"></text>
		<text x="0" y="150"></text>
		<text x="0" y="165"></text>
		<text x="0" y="180"></text>
		<text x="0" y="195"></text> 
		
		</g>

		<g id="J column" class="st26 st28 st27 st41" transform="translate(317, 117)">
		<text x="0" y="0"></text>
		<text x="0" y="15"></text>
		
		<text x="1" y="30">158</text>
		<text x="-10" y="24">0</text>
		
		<text x="2" y="45">22</text>
		<text x="-10" y="39">0</text>
		
		<text x="0" y="60"></text>
		
		<text x="1" y="75">192</text>
		<text x="-10" y="69">0</text>
		
		<text x="1" y="90">91</text>
		<text x="-10" y="86">0</text>
		
		<text x="0" y="105"></text>
		
		<text x="1" y="120">160</text>
		<text x="-10" y="116">0</text>
		
		<text x="0" y="135"></text>
		<text x="0" y="150"></text>
		<text x="0" y="165"></text>
		<text x="0" y="180"></text>
		<text x="0" y="195"></text> 
		
		</g>

		<g id="J column" class="st26 st28 st27 st41" transform="translate(337, 117)">
		<text x="2" y="0">45</text>
		<text x="-10" y="-6">0</text>
		
		<text x="0" y="15"></text>
		<text x="0" y="30"></text>
		<text x="0" y="45"></text>
		<text x="0" y="60"></text>
		<text x="0" y="75"></text>
		
		<text x="2" y="90">91</text>
		<text x="-10" y="84">0</text>
		
		<text x="0" y="105"></text>
		
		<text x="1" y="120">170</text>
		<text x="-10" y="114">0</text>
		
		<text x="0" y="135"></text>
		<text x="0" y="150"></text>
		<text x="0" y="165"></text>
		<text x="0" y="180"></text>
		<text x="0" y="195"></text>
		
		</g>

		<g id="A column" class="st26 st28 st27 st41" transform="translate(357, 117)">
		<text x="0" y="0"></text>
		<text x="0" y="15"></text>
		<text x="0" y="30"></text>
		<text x="0" y="45"></text>
		
		<text x="2" y="60">66</text>
		<text x="-10" y="54">0</text>
		
		<text x="0" y="75"></text>
		
		<text x="2" y="90">60</text>
		<text x="-10" y="84">0</text>
		
		<text x="1" y="105">114</text>
		<text x="-10" y="99">0</text>
		
		<text x="0" y="120"></text>
		<text x="0" y="135"></text>
		<text x="0" y="150"></text>
		<text x="0" y="165"></text>
		<text x="0" y="180"></text>
		<text x="0" y="195"></text> 
		
		
		
		</g>

		<g id="S column" class="st26 st28 st27 st41" transform="translate(377, 117)">
		<text x="0" y="0"></text>
		<text x="0" y="15"></text>
		<text x="0" y="30"></text>
		<text x="0" y="45"></text>
		<text x="0" y="60"></text>
		<text x="0" y="75"></text>
		
		<text x="2" y="90">60</text>
		<text x="-10" y="84">0</text>
		
		<text x="2" y="105">29</text>
		<text x="-10" y="99">0</text>
		
		<text x="0" y="120"></text>
			
		<text x="1" y="135">44</text>
		<text x="-10" y="129">0</text>
		
		<text x="1" y="150">264</text>
		<text x="-10" y="144">0</text>
		
		<text x="0" y="165"></text>
		<text x="0" y="180"></text>
		<text x="0" y="195"></text> 
		</g>

		<g id="O column" class="st26 st28 st27 st41" transform="translate(397, 117)">
		<text x="0" y="0"></text>
		<text x="0" y="15"></text>
		<text x="0" y="30"></text>
		<text x="0" y="45"></text>
		<text x="0" y="60"></text>
		<text x="0" y="75"></text>
		
		<text x="2" y="90">60</text>
		<text x="-10" y="84">0</text>
		
		<text x="0" y="105"></text>
		<text x="0" y="120"></text>
		<text x="0" y="135"></text>
		
		<text x="1" y="150">135</text>
		<text x="-10" y="144">0</text>
		
		
		<text x="0" y="165"></text>
		<text x="0" y="180"></text>
		<text x="0" y="195"></text>
		
		</g>

		<g id="N column" class="st26 st28 st27 st41" transform="translate(417, 117)">
		<text x="0" y="0"></text>
		<text x="0" y="15"></text>
		<text x="0" y="30"></text>
		<text x="0" y="45"></text>
		<text x="0" y="60"></text>
		
		<text x="2" y="75">18</text>
		<text x="-10" y="69">0</text>
		
		<text x="1" y="90">128</text>
		<text x="-10" y="84">0</text>
		
		<text x="0" y="105"></text>
		<text x="0" y="120"></text>
		<text x="0" y="135"></text>
		<text x="0" y="150"></text>
		<text x="0" y="165"></text>
		<text x="0" y="180"></text>
		<text x="0" y="195"></text> 
				
		</g>

		<g id="D column" class="st26 st28 st27 st41" transform="translate(437, 117)">
		<text x="0" y="0"></text>
		<text x="0" y="15"></text>
		<text x="0" y="30"></text>
		<text x="0" y="45"></text>
		<text x="0" y="60"></text>
		<text x="0" y="75"></text>
		
		<text x="2" y="90">8</text>
		<text x="-10" y="84">0</text>
		
		<text x="0" y="105"></text>
		<text x="0" y="120"></text>
		<text x="0" y="135"></text>
		<text x="0" y="150"></text>
		<text x="0" y="165"></text>
		<text x="0" y="180"></text>
		<text x="0" y="195"></text> 
		
		</g>
		-->
       <g id="vertical lines">
		<line x1="110" y1="105" x2="110" y2="270"/>
		<line x1="110" y1="50" x2="110" y2="360" style="stroke-width: 1; stroke: black; "/>
		<line x1="140" y1="50" x2="140" y2="360" style="stroke-width: 1; stroke: black; "/>
		<line x1="170" y1="50" x2="170" y2="360" style="stroke-width: 1; stroke: black; "/>
		<line x1="200" y1="50" x2="200" y2="360" style="stroke-width: 1; stroke: black; "/>
		
		<line x1="230" y1="70" x2="230" y2="360"/>		
   		<line x1="260" y1="70" x2="260" y2="360"/>		
		<line x1="290" y1="70" x2="290" y2="360"/>		
		<line x1="320" y1="70" x2="320" y2="360"/>		
		<line x1="350" y1="70" x2="350" y2="360"/>	
		<line x1="380" y1="70" x2="380" y2="360"/>		
		<line x1="410" y1="70" x2="410" y2="360"/>		
		<line x1="440" y1="70" x2="440" y2="360"/>		
   		<line x1="470" y1="70" x2="470" y2="360"/>		
		<line x1="500" y1="70" x2="500" y2="360"/>		
		<line x1="530" y1="70" x2="530" y2="360"/>
		<line x1="560" y1="70" x2="560" y2="360"/>
 
	   
	   
		
		<!--Diagonal Lines
		<line x1="340" y1="105" x2="320" y2="120"/>
		<line x1="220" y1="120" x2="200" y2="135"/>
		<line x1="240" y1="120" x2="220" y2="135"/>
		<line x1="260" y1="120" x2="240" y2="135"/>
		
		<line x1="260" y1="135" x2="240" y2="150"/>
		<line x1="280" y1="135" x2="260" y2="150"/>
		<line x1="300" y1="135" x2="280" y2="150"/>
		<line x1="320" y1="135" x2="300" y2="150"/>
		
		<line x1="280" y1="150" x2="260" y2="165"/>
		<line x1="320" y1="150" x2="300" y2="165"/>
		
		<line x1="360" y1="165" x2="340" y2="180"/>
		
		<line x1="320" y1="180" x2="300" y2="195"/>
		<line x1="300" y1="180" x2="280" y2="195"/>
		<line x1="420" y1="180" x2="400" y2="195"/>
		
		<line x1="220" y1="195" x2="200" y2="210"/>
		<line x1="320" y1="195" x2="300" y2="210"/>
		<line x1="340" y1="195" x2="320" y2="210"/>
		<line x1="360" y1="195" x2="340" y2="210"/>
		<line x1="380" y1="195" x2="360" y2="210"/>
		<line x1="400" y1="195" x2="380" y2="210"/>
		<line x1="420" y1="195" x2="400" y2="210"/>
		<line x1="440" y1="195" x2="420" y2="210"/>
		
		<line x1="280" y1="210" x2="260" y2="225"/>
		<line x1="360" y1="210" x2="340" y2="225"/>
		<line x1="380" y1="210" x2="360" y2="225"/>
		
		<line x1="300" y1="225" x2="280" y2="240"/>
		<line x1="320" y1="225" x2="300" y2="240"/>
		<line x1="340" y1="225" x2="320" y2="240"/>
		
		<line x1="380" y1="240" x2="360" y2="255"/>
		
		<line x1="380" y1="255" x2="360" y2="270"/>
		<line x1="400" y1="255" x2="380" y2="270"/>
		-->
        </g>
	</g>
</svg>
